<svg width="80" height="80" viewBox="0 0 80 80" fill="none" xmlns="http://www.w3.org/2000/svg">
<rect width="80" height="80" rx="16" fill="#EBF9FF"/>
<path d="M34.4531 43.8832C34.4531 46.0332 36.1031 47.7665 38.1531 47.7665H42.3365C44.1198 47.7665 45.5698 46.2498 45.5698 44.3832C45.5698 42.3498 44.6865 41.6332 43.3698 41.1665L36.6531 38.8332C35.3365 38.3665 34.4531 37.6498 34.4531 35.6165C34.4531 33.7498 35.9031 32.2332 37.6865 32.2332H41.8698C43.9198 32.2332 45.5698 33.9665 45.5698 36.1165" stroke="#008EC4" stroke-width="2.5" stroke-linecap="round" stroke-linejoin="round"/>
<path d="M40 30V50" stroke="#008EC4" stroke-width="2.5" stroke-linecap="round" stroke-linejoin="round"/>
<path d="M40.0007 56.6666C49.2054 56.6666 56.6673 49.2047 56.6673 39.9999C56.6673 30.7952 49.2054 23.3333 40.0007 23.3333C30.7959 23.3333 23.334 30.7952 23.334 39.9999C23.334 49.2047 30.7959 56.6666 40.0007 56.6666Z" stroke="#008EC4" stroke-width="2.5" stroke-linecap="round" stroke-linejoin="round"/>
</svg>
